<?xml version="1.0" encoding="UTF-8" standalone="no"?>
<!-- Created with Inkscape (http://www.inkscape.org/) -->

<svg
   id="svg2416"
   version="1.1"
   viewBox="0 0 210 297"
   height="297mm"
   width="210mm"
   inkscape:version="1.1 (c68e22c387, 2021-05-23)"
   sodipodi:docname="tegning-1.svg"
   xmlns:inkscape="http://www.inkscape.org/namespaces/inkscape"
   xmlns:sodipodi="http://sodipodi.sourceforge.net/DTD/sodipodi-0.dtd"
   xmlns="http://www.w3.org/2000/svg"
   xmlns:svg="http://www.w3.org/2000/svg">
  <sodipodi:namedview
     id="namedview2418"
     pagecolor="#ffffff"
     bordercolor="#666666"
     borderopacity="1.0"
     inkscape:pageshadow="2"
     inkscape:pageopacity="0.0"
     inkscape:pagecheckerboard="0"
     inkscape:document-units="mm"
     showgrid="false"
     inkscape:zoom="1.3416246"
     inkscape:cx="352.93033"
     inkscape:cy="738.28403"
     inkscape:window-width="1920"
     inkscape:window-height="1001"
     inkscape:window-x="-9"
     inkscape:window-y="-9"
     inkscape:window-maximized="1"
     inkscape:current-layer="layer1" />
  <defs
     id="defs2413" />
  <g
     inkscape:label="Lag 1"
     inkscape:groupmode="layer"
     id="layer1">
    <path
       style="fill:none;stroke:#000000;stroke-width:0.264583px;stroke-linecap:butt;stroke-linejoin:miter;stroke-opacity:1"
       d="m 17.354582,159.54382 -0.591634,22.08765 18.73506,-2.16932 0.788844,-19.91833 z"
       id="path7051" />
    <path
       style="fill:none;stroke:#000000;stroke-width:0.264583px;stroke-linecap:butt;stroke-linejoin:miter;stroke-opacity:1"
       d="m 17.354582,159.54382 -1.972112,-20.11554 20.904382,1.18327 v 18.93227"
       id="path7053" />
    <path
       style="fill:none;stroke:#000000;stroke-width:0.264583px;stroke-linecap:butt;stroke-linejoin:miter;stroke-opacity:1"
       d="M 36.286852,140.61155 56.5996,143.1753 v 19.91832 l -20.312748,-3.5498"
       id="path7055" />
    <path
       style="fill:none;stroke:#000000;stroke-width:0.264583px;stroke-linecap:butt;stroke-linejoin:miter;stroke-opacity:1"
       d="m 56.5996,163.09362 1.577689,16.96016 -22.679281,-0.59163"
       id="path7057" />
    <path
       style="fill:none;stroke:#000000;stroke-width:0.264583px;stroke-linecap:butt;stroke-linejoin:miter;stroke-opacity:1"
       d="m 17.354582,159.54382 -0.591634,22.08765 18.73506,-2.16932 0.788844,-19.91833 z"
       id="path7139" />
    <path
       style="fill:none;stroke:#000000;stroke-width:0.264583px;stroke-linecap:butt;stroke-linejoin:miter;stroke-opacity:1"
       d="m 17.354582,159.54382 -1.972112,-20.11554 20.904382,1.18327 v 18.93227"
       id="path7141" />
    <path
       style="fill:none;stroke:#000000;stroke-width:0.264583px;stroke-linecap:butt;stroke-linejoin:miter;stroke-opacity:1"
       d="M 36.286852,140.61155 56.5996,143.1753 v 19.91832 l -20.312748,-3.5498"
       id="path7143" />
    <path
       style="fill:none;stroke:#000000;stroke-width:0.264583px;stroke-linecap:butt;stroke-linejoin:miter;stroke-opacity:1"
       d="m 56.5996,163.09362 1.577689,16.96016 -22.679281,-0.59163"
       id="path7145" />
    <path
       style="fill:none;stroke:#000000;stroke-width:0.264583px;stroke-linecap:butt;stroke-linejoin:miter;stroke-opacity:1"
       d="m 17.354582,159.54382 -0.591634,22.08765 18.73506,-2.16932 0.788844,-19.91833 z"
       id="path7147" />
    <path
       style="fill:none;stroke:#000000;stroke-width:0.264583px;stroke-linecap:butt;stroke-linejoin:miter;stroke-opacity:1"
       d="m 17.354582,159.54382 -1.972112,-20.11554 20.904382,1.18327 v 18.93227"
       id="path7149" />
    <path
       style="fill:none;stroke:#000000;stroke-width:0.264583px;stroke-linecap:butt;stroke-linejoin:miter;stroke-opacity:1"
       d="M 36.286852,140.61155 56.5996,143.1753 v 19.91832 l -20.312748,-3.5498"
       id="path7151" />
    <path
       style="fill:none;stroke:#000000;stroke-width:0.264583px;stroke-linecap:butt;stroke-linejoin:miter;stroke-opacity:1"
       d="m 56.5996,163.09362 1.577689,16.96016 -22.679281,-0.59163"
       id="path7153" />
    <path
       style="fill:none;stroke:#000000;stroke-width:0.264583px;stroke-linecap:butt;stroke-linejoin:miter;stroke-opacity:1"
       d="m 17.354582,159.54382 -0.591634,22.08765 18.73506,-2.16932 0.788844,-19.91833 z"
       id="path7155" />
    <path
       style="fill:none;stroke:#000000;stroke-width:0.264583px;stroke-linecap:butt;stroke-linejoin:miter;stroke-opacity:1"
       d="m 17.354582,159.54382 -1.972112,-20.11554 20.904382,1.18327 v 18.93227"
       id="path7157" />
    <path
       style="fill:none;stroke:#000000;stroke-width:0.264583px;stroke-linecap:butt;stroke-linejoin:miter;stroke-opacity:1"
       d="M 36.286852,140.61155 56.5996,143.1753 v 19.91832 l -20.312748,-3.5498"
       id="path7159" />
    <path
       style="fill:none;stroke:#000000;stroke-width:0.264583px;stroke-linecap:butt;stroke-linejoin:miter;stroke-opacity:1"
       d="m 56.5996,163.09362 1.577689,16.96016 -22.679281,-0.59163"
       id="path7161" />
    <path
       style="fill:none;stroke:#000000;stroke-width:0.264583px;stroke-linecap:butt;stroke-linejoin:miter;stroke-opacity:1"
       d="m 70.009961,159.54382 -0.591634,22.08765 18.73506,-2.16932 0.788844,-19.91833 z"
       id="path7179" />
    <path
       style="fill:none;stroke:#000000;stroke-width:0.264583px;stroke-linecap:butt;stroke-linejoin:miter;stroke-opacity:1"
       d="m 70.009961,159.54382 -1.972112,-20.11554 20.904382,1.18327 v 18.93227"
       id="path7181" />
    <path
       style="fill:none;stroke:#000000;stroke-width:0.264583px;stroke-linecap:butt;stroke-linejoin:miter;stroke-opacity:1"
       d="m 88.942231,140.61155 20.312749,2.56375 v 19.91832 l -20.312749,-3.5498"
       id="path7183" />
    <path
       style="fill:none;stroke:#000000;stroke-width:0.264583px;stroke-linecap:butt;stroke-linejoin:miter;stroke-opacity:1"
       d="m 109.25498,163.09362 1.57769,16.96016 -22.679283,-0.59163"
       id="path7185" />
    <path
       style="fill:none;stroke:#000000;stroke-width:0.264583px;stroke-linecap:butt;stroke-linejoin:miter;stroke-opacity:1"
       d="m 70.009961,159.54382 -0.591634,22.08765 18.73506,-2.16932 0.788844,-19.91833 z"
       id="path7187" />
    <path
       style="fill:none;stroke:#000000;stroke-width:0.264583px;stroke-linecap:butt;stroke-linejoin:miter;stroke-opacity:1"
       d="m 70.009961,159.54382 -1.972112,-20.11554 20.904382,1.18327 v 18.93227"
       id="path7189" />
    <path
       style="fill:none;stroke:#000000;stroke-width:0.264583px;stroke-linecap:butt;stroke-linejoin:miter;stroke-opacity:1"
       d="m 88.942231,140.61155 20.312749,2.56375 v 19.91832 l -20.312749,-3.5498"
       id="path7191" />
    <path
       style="fill:none;stroke:#000000;stroke-width:0.264583px;stroke-linecap:butt;stroke-linejoin:miter;stroke-opacity:1"
       d="m 109.25498,163.09362 1.57769,16.96016 -22.679283,-0.59163"
       id="path7193" />
    <path
       style="fill:none;stroke:#000000;stroke-width:0.264583px;stroke-linecap:butt;stroke-linejoin:miter;stroke-opacity:1"
       d="m 70.009961,159.54382 -0.591634,22.08765 18.73506,-2.16932 0.788844,-19.91833 z"
       id="path7195" />
    <path
       style="fill:none;stroke:#000000;stroke-width:0.264583px;stroke-linecap:butt;stroke-linejoin:miter;stroke-opacity:1"
       d="m 70.009961,159.54382 -1.972112,-20.11554 20.904382,1.18327 v 18.93227"
       id="path7197" />
    <path
       style="fill:none;stroke:#000000;stroke-width:0.264583px;stroke-linecap:butt;stroke-linejoin:miter;stroke-opacity:1"
       d="m 88.942231,140.61155 20.312749,2.56375 v 19.91832 l -20.312749,-3.5498"
       id="path7199" />
    <path
       style="fill:none;stroke:#000000;stroke-width:0.264583px;stroke-linecap:butt;stroke-linejoin:miter;stroke-opacity:1"
       d="m 109.25498,163.09362 1.57769,16.96016 -22.679283,-0.59163"
       id="path7201" />
    <path
       style="fill:none;stroke:#000000;stroke-width:0.264583px;stroke-linecap:butt;stroke-linejoin:miter;stroke-opacity:1"
       d="m 70.009961,159.54382 -0.591634,22.08765 18.73506,-2.16932 0.788844,-19.91833 z"
       id="path7203" />
    <path
       style="fill:none;stroke:#000000;stroke-width:0.264583px;stroke-linecap:butt;stroke-linejoin:miter;stroke-opacity:1"
       d="m 70.009961,159.54382 -1.972112,-20.11554 20.904382,1.18327 v 18.93227"
       id="path7205" />
    <path
       style="fill:none;stroke:#000000;stroke-width:0.264583px;stroke-linecap:butt;stroke-linejoin:miter;stroke-opacity:1"
       d="m 88.942231,140.61155 20.312749,2.56375 v 19.91832 l -20.312749,-3.5498"
       id="path7207" />
    <path
       style="fill:none;stroke:#000000;stroke-width:0.264583px;stroke-linecap:butt;stroke-linejoin:miter;stroke-opacity:1"
       d="m 109.25498,163.09362 1.57769,16.96016 -22.679283,-0.59163"
       id="path7209" />
    <path
       style="fill:none;stroke:#000000;stroke-width:0.264583px;stroke-linecap:butt;stroke-linejoin:miter;stroke-opacity:1"
       d="m 125.4263,159.54382 -0.59164,22.08765 18.73506,-2.16932 0.78885,-19.91833 z"
       id="path7211" />
    <path
       style="fill:none;stroke:#000000;stroke-width:0.264583px;stroke-linecap:butt;stroke-linejoin:miter;stroke-opacity:1"
       d="m 125.4263,159.54382 -1.97212,-20.11554 20.90439,1.18327 v 18.93227"
       id="path7213" />
    <path
       style="fill:none;stroke:#000000;stroke-width:0.264583px;stroke-linecap:butt;stroke-linejoin:miter;stroke-opacity:1"
       d="m 144.35857,140.61155 20.31274,2.56375 v 19.91832 l -20.31274,-3.5498"
       id="path7215" />
    <path
       style="fill:none;stroke:#000000;stroke-width:0.264583px;stroke-linecap:butt;stroke-linejoin:miter;stroke-opacity:1"
       d="m 164.67131,163.09362 1.57769,16.96016 -22.67928,-0.59163"
       id="path7217" />
    <path
       style="fill:none;stroke:#000000;stroke-width:0.264583px;stroke-linecap:butt;stroke-linejoin:miter;stroke-opacity:1"
       d="m 125.4263,159.54382 -0.59164,22.08765 18.73506,-2.16932 0.78885,-19.91833 z"
       id="path7219" />
    <path
       style="fill:none;stroke:#000000;stroke-width:0.264583px;stroke-linecap:butt;stroke-linejoin:miter;stroke-opacity:1"
       d="m 125.4263,159.54382 -1.97212,-20.11554 20.90439,1.18327 v 18.93227"
       id="path7221" />
    <path
       style="fill:none;stroke:#000000;stroke-width:0.264583px;stroke-linecap:butt;stroke-linejoin:miter;stroke-opacity:1"
       d="m 144.35857,140.61155 20.31274,2.56375 v 19.91832 l -20.31274,-3.5498"
       id="path7223" />
    <path
       style="fill:none;stroke:#000000;stroke-width:0.264583px;stroke-linecap:butt;stroke-linejoin:miter;stroke-opacity:1"
       d="m 164.67131,163.09362 1.57769,16.96016 -22.67928,-0.59163"
       id="path7225" />
    <path
       style="fill:none;stroke:#000000;stroke-width:0.264583px;stroke-linecap:butt;stroke-linejoin:miter;stroke-opacity:1"
       d="m 125.4263,159.54382 -0.59164,22.08765 18.73506,-2.16932 0.78885,-19.91833 z"
       id="path7227" />
    <path
       style="fill:none;stroke:#000000;stroke-width:0.264583px;stroke-linecap:butt;stroke-linejoin:miter;stroke-opacity:1"
       d="m 125.4263,159.54382 -1.97212,-20.11554 20.90439,1.18327 v 18.93227"
       id="path7229" />
    <path
       style="fill:none;stroke:#000000;stroke-width:0.264583px;stroke-linecap:butt;stroke-linejoin:miter;stroke-opacity:1"
       d="m 144.35857,140.61155 20.31274,2.56375 v 19.91832 l -20.31274,-3.5498"
       id="path7231" />
    <path
       style="fill:none;stroke:#000000;stroke-width:0.264583px;stroke-linecap:butt;stroke-linejoin:miter;stroke-opacity:1"
       d="m 164.67131,163.09362 1.57769,16.96016 -22.67928,-0.59163"
       id="path7233" />
    <path
       style="fill:none;stroke:#000000;stroke-width:0.264583px;stroke-linecap:butt;stroke-linejoin:miter;stroke-opacity:1"
       d="m 125.4263,159.54382 -0.59164,22.08765 18.73506,-2.16932 0.78885,-19.91833 z"
       id="path7235" />
    <path
       style="fill:none;stroke:#000000;stroke-width:0.264583px;stroke-linecap:butt;stroke-linejoin:miter;stroke-opacity:1"
       d="m 125.4263,159.54382 -1.97212,-20.11554 20.90439,1.18327 v 18.93227"
       id="path7237" />
    <path
       style="fill:none;stroke:#000000;stroke-width:0.264583px;stroke-linecap:butt;stroke-linejoin:miter;stroke-opacity:1"
       d="m 144.35857,140.61155 20.31274,2.56375 v 19.91832 l -20.31274,-3.5498"
       id="path7239" />
    <path
       style="fill:none;stroke:#000000;stroke-width:0.264583px;stroke-linecap:butt;stroke-linejoin:miter;stroke-opacity:1"
       d="m 164.67131,163.09362 1.57769,16.96016 -22.67928,-0.59163"
       id="path7241" />
    <path
       style="fill:none;stroke:#000000;stroke-width:0.264583px;stroke-linecap:butt;stroke-linejoin:miter;stroke-opacity:1"
       d="m 125.4263,220.28486 -0.59164,22.08765 18.73506,-2.16932 0.78885,-19.91833 z"
       id="path7243" />
    <path
       style="fill:none;stroke:#000000;stroke-width:0.264583px;stroke-linecap:butt;stroke-linejoin:miter;stroke-opacity:1"
       d="m 125.4263,220.28486 -1.97212,-20.11554 20.90439,1.18327 v 18.93227"
       id="path7245" />
    <path
       style="fill:none;stroke:#000000;stroke-width:0.264583px;stroke-linecap:butt;stroke-linejoin:miter;stroke-opacity:1"
       d="m 144.35857,201.35259 20.31274,2.56375 v 19.91832 l -20.31274,-3.5498"
       id="path7247" />
    <path
       style="fill:none;stroke:#000000;stroke-width:0.264583px;stroke-linecap:butt;stroke-linejoin:miter;stroke-opacity:1"
       d="m 164.67131,223.83466 1.57769,16.96016 -22.67928,-0.59163"
       id="path7249" />
    <path
       style="fill:none;stroke:#000000;stroke-width:0.264583px;stroke-linecap:butt;stroke-linejoin:miter;stroke-opacity:1"
       d="m 125.4263,220.28486 -0.59164,22.08765 18.73506,-2.16932 0.78885,-19.91833 z"
       id="path7251" />
    <path
       style="fill:none;stroke:#000000;stroke-width:0.264583px;stroke-linecap:butt;stroke-linejoin:miter;stroke-opacity:1"
       d="m 125.4263,220.28486 -1.97212,-20.11554 20.90439,1.18327 v 18.93227"
       id="path7253" />
    <path
       style="fill:none;stroke:#000000;stroke-width:0.264583px;stroke-linecap:butt;stroke-linejoin:miter;stroke-opacity:1"
       d="m 144.35857,201.35259 20.31274,2.56375 v 19.91832 l -20.31274,-3.5498"
       id="path7255" />
    <path
       style="fill:none;stroke:#000000;stroke-width:0.264583px;stroke-linecap:butt;stroke-linejoin:miter;stroke-opacity:1"
       d="m 164.67131,223.83466 1.57769,16.96016 -22.67928,-0.59163"
       id="path7257" />
    <path
       style="fill:none;stroke:#000000;stroke-width:0.264583px;stroke-linecap:butt;stroke-linejoin:miter;stroke-opacity:1"
       d="m 125.4263,220.28486 -0.59164,22.08765 18.73506,-2.16932 0.78885,-19.91833 z"
       id="path7259" />
    <path
       style="fill:none;stroke:#000000;stroke-width:0.264583px;stroke-linecap:butt;stroke-linejoin:miter;stroke-opacity:1"
       d="m 125.4263,220.28486 -1.97212,-20.11554 20.90439,1.18327 v 18.93227"
       id="path7261" />
    <path
       style="fill:none;stroke:#000000;stroke-width:0.264583px;stroke-linecap:butt;stroke-linejoin:miter;stroke-opacity:1"
       d="m 144.35857,201.35259 20.31274,2.56375 v 19.91832 l -20.31274,-3.5498"
       id="path7263" />
    <path
       style="fill:none;stroke:#000000;stroke-width:0.264583px;stroke-linecap:butt;stroke-linejoin:miter;stroke-opacity:1"
       d="m 164.67131,223.83466 1.57769,16.96016 -22.67928,-0.59163"
       id="path7265" />
    <g
       id="g22945">
      <path
         style="fill:none;stroke:#000000;stroke-width:0.264583px;stroke-linecap:butt;stroke-linejoin:miter;stroke-opacity:1"
         d="m 125.4263,220.28486 -0.59164,22.08765 18.73506,-2.16932 0.78885,-19.91833 z"
         id="path7267" />
      <path
         style="fill:none;stroke:#000000;stroke-width:0.264583px;stroke-linecap:butt;stroke-linejoin:miter;stroke-opacity:1"
         d="m 125.4263,220.28486 -1.97212,-20.11554 20.90439,1.18327 v 18.93227"
         id="path7269" />
      <path
         style="fill:none;stroke:#000000;stroke-width:0.264583px;stroke-linecap:butt;stroke-linejoin:miter;stroke-opacity:1"
         d="m 144.35857,201.35259 20.31274,2.56375 v 19.91832 l -20.31274,-3.5498"
         id="path7271" />
      <path
         style="fill:none;stroke:#000000;stroke-width:0.264583px;stroke-linecap:butt;stroke-linejoin:miter;stroke-opacity:1"
         d="m 164.67131,223.83466 1.57769,16.96016 -22.67928,-0.59163"
         id="path7273" />
    </g>
    <path
       style="fill:none;stroke:#000000;stroke-width:0.264583px;stroke-linecap:butt;stroke-linejoin:miter;stroke-opacity:1"
       d="m 133.90637,209.83267 21.1016,2.76095"
       id="path23210" />
    <path
       style="fill:none;stroke:#000000;stroke-width:0.264583px;stroke-linecap:butt;stroke-linejoin:miter;stroke-opacity:1"
       d="m 115.56574,231.33701 h 34.51195"
       id="path23707" />
  </g>
</svg>
